<svg xmlns="http://www.w3.org/2000/svg" fill="none" viewBox="0 0 1145 1145">
  <rect width="217" height="16" x="289" y="473" fill="#000" rx="5"/>
  <rect width="216.775" height="12.247" x="654.207" y="585.895" fill="#000" rx="5"/>
  <rect width="202" height="16" x="289" y="598" fill="#000" rx="5"/>
  <rect width="170" height="16" x="289" y="536" fill="#000" rx="5"/>
  <path fill="#000" d="M748.864 859.217H221.336c-42.692-.034-77.297-34.626-77.331-77.304V526.874c0-5.664 4.33 0 9.995 0 0 0 10.482-5.664 10.482 0v255.039c.034 31.386 25.458 56.801 56.854 56.835H733.47c-15.118-43.019-7.951-90.713 19.179-127.35 27.131-36.639 70.676-57.448 116.238-55.572a137.414 137.414 0 0 1 111.214 65.022V292.303c-.034-31.386-25.459-56.767-56.821-56.835H221.331c-31.397.034-56.821 25.45-56.855 56.835l.006 234.571c0 25.95-4.817 0-10.482 0-5.665 0-9.995 5.663-9.995 0L144 292.304c.034-42.677 34.638-77.236 77.331-77.304H923.28c42.658.068 77.23 34.626 77.3 77.304v489.608c0 1.945 0 3.753-.21 5.527v.034c-.407 5.356-4.878 9.483-10.236 9.449h-.136c-5.392-.034-9.829-4.298-10.101-9.688-1.741-35.104-19.179-67.582-47.504-88.391a116.998 116.998 0 0 0-98.555-19.002 116.886 116.886 0 0 0-76.99 64.307c-14.708 31.93-14.23 68.775 1.229 100.328a10.19 10.19 0 0 1-.512 9.927c-1.843 2.968-5.153 4.811-8.668 4.811l-.033.003Z"/>
  <path fill="#000" d="M863.153 930.516c-36.447 0-71.393-14.499-97.192-40.256a137.337 137.337 0 0 1-40.235-97.158 137.31 137.31 0 0 1 40.235-97.123 137.55 137.55 0 0 1 97.192-40.222 137.546 137.546 0 0 1 97.192 40.222 137.316 137.316 0 0 1 40.235 97.123 137.509 137.509 0 0 1-40.303 97.124c-25.765 25.756-60.679 40.222-97.124 40.29Zm0-254.289v-.034c-47.3 0-89.958 28.486-108.043 72.187-18.121 43.7-8.088 93.988 25.356 127.419 33.443 33.431 83.746 43.428 127.429 25.347 43.715-18.115 72.211-60.724 72.211-108.04-.068-64.511-52.383-116.844-116.953-116.879Z"/>
  <path fill="#000" d="M826.383 760.939a6.217 6.217 0 0 0-8.816 0l-27.937 27.9a6.209 6.209 0 0 0-1.837 4.402 6.2 6.2 0 0 0 1.837 4.402l27.937 27.9a6.204 6.204 0 0 0 4.408 1.834 6.204 6.204 0 0 0 4.408-1.834 6.194 6.194 0 0 0 0-8.804l-23.592-23.498 23.592-23.498a6.194 6.194 0 0 0 0-8.804ZM907.055 761.203a6.24 6.24 0 0 0-10.167 2.02 6.222 6.222 0 0 0 1.352 6.785l23.591 23.497-23.591 23.498a6.209 6.209 0 0 0-1.837 4.403 6.194 6.194 0 0 0 1.837 4.401 6.193 6.193 0 0 0 4.407 1.834 6.193 6.193 0 0 0 4.408-1.834l27.938-27.9a6.194 6.194 0 0 0 0-8.803l-27.938-27.901ZM883.169 739.744c-1.135-.712-2.449-.834-3.655-.339-1.206.495-2.206 1.566-2.782 2.979l-38.428 96.019a7.374 7.374 0 0 0-.271 4.566c.396 1.507 1.253 2.756 2.385 3.476a3.776 3.776 0 0 0 2.161.66c.887-.003 1.756-.313 2.511-.896.754-.583 1.365-1.415 1.764-2.405l38.428-96.019a7.364 7.364 0 0 0 .271-4.565c-.396-1.507-1.253-2.757-2.384-3.476Z"/>
  <path stroke="#000" stroke-linejoin="round" stroke-width="15" d="M678.789 477.19 632 541h254L779.053 407l-66.842 89.333-33.422-19.143Z"/>
</svg>
